<svg xmlns="http://www.w3.org/2000/svg" viewBox="0 0 111.01 46.75"><defs><style>.cls-1{fill:#788ec7;}.cls-2{fill:#0056a7;}.cls-3{fill:#fff;}.cls-4{fill:#fcb23d;}.cls-5{fill:#f04e31;}</style></defs><g id="Layer_2" data-name="Layer 2"><g id="Layer_1-2" data-name="Layer 1"><g id="united-way"><rect class="cls-1" x="65.85" width="45.16" height="46.75"/><rect class="cls-2" width="65.85" height="46.75"/><path class="cls-3" d="M107.08,23.07A18.65,18.65,0,1,1,88.43,4.42a18.65,18.65,0,0,1,18.65,18.65"/><path class="cls-4" d="M78.76,26.71l.82-.38c.22-.11.19-.2.12-.39a9.17,9.17,0,1,1,17.14.82.23.23,0,0,0,.08.31l.87.38a.25.25,0,0,0,.36-.15,10.57,10.57,0,1,0-19.73-.77c.06.16.15.27.34.18"/><path class="cls-4" d="M76.07,28l1.17-.56a.24.24,0,0,0,.13-.34,11.74,11.74,0,1,1,21.83.72.23.23,0,0,0,.12.33l1.18.53c.16.07.26,0,.35-.16A13.33,13.33,0,0,0,102,23.11,13.53,13.53,0,1,0,75.74,27.8a.22.22,0,0,0,.33.16"/><path class="cls-4" d="M72.41,29.64l2.13-1c.29-.12.16-.34.13-.46a14.49,14.49,0,0,1-.92-5.08,14.68,14.68,0,1,1,28.18,5.78.29.29,0,0,0,.16.44l2,.88c.21.1.37.08.51-.23A17.58,17.58,0,1,0,72,29.43c0,.11.12.32.37.21"/><path class="cls-5" d="M88.44,19.29a1.88,1.88,0,1,0-1.88-1.88,1.88,1.88,0,0,0,1.88,1.88"/><path class="cls-5" d="M89.13,29.16a.66.66,0,0,0,.66-.67V24.36a2.83,2.83,0,0,1,.76-1.58l3.89-3.89a.68.68,0,0,0,0-.95l-.71-.71a.68.68,0,0,0-1,0l-3.51,3.52a1,1,0,0,1-.83.37,1,1,0,0,1-.83-.37l-3.52-3.52a.66.66,0,0,0-.94,0l-.71.71a.68.68,0,0,0,0,.95l3.89,3.89a2.81,2.81,0,0,1,.75,1.58v4.13a.67.67,0,0,0,.67.67Z"/><path class="cls-2" d="M101.4,30.62A12.37,12.37,0,0,0,99,32.57l-.16,0a17.87,17.87,0,0,0,1.27-1.66c.67-1.11-.6-2.16-2-1.36a19.16,19.16,0,0,0-1.84,1.57l-.14,0a16.44,16.44,0,0,0,1.18-1.55c.62-.9-.66-1.76-1.76-1.09a21.63,21.63,0,0,0-2.06,1.61l-.11,0c.17-.17.61-.69.77-.87.65-.73-.28-1.57-1.26-1.06S90.58,30.07,89.11,31c.68.37,1.89.43,3.8,1.24S95.45,35,94.2,36.49s-2.92.93-4.44.45c-1.76-.55-2.38-1.11-4.5-1.85-1.38-.48-2-.48-1.92-.87s1.22-.18,2.33.22c3.11,1.13,7.24,3.69,8.25.93.8-2.17-2.78-3.12-4.15-3.38-1.91-.36-3.22-1.76-4.88-2.65a8.58,8.58,0,0,0-5.84-1.12,18.19,18.19,0,0,0-5,2.32c-.92.54-.85,1.37,0,2.65a17.55,17.55,0,0,0,29.32-.85c.69-1.11-.39-2.28-2-1.72"/><path class="cls-3" d="M51,42.72c0,.51,1.81,1.05,2.76,1.05a3,3,0,0,0,2.94-2C57.43,40,60.4,29.8,60.4,29.8h.34c.66-.11.91-.51.91-1.53,0-.37-.06-.4-.35-.4H58.86c-.24,0-.26,0-.33.28L56.5,36l-2.09-7.85c-.07-.24-.1-.28-.33-.28H51.62c-.29,0-.34,0-.34.4,0,1,.25,1.42.92,1.53h.34s2,6.83,3,9.69l-.15.56c-.33,1.07-.9,1.56-1.8,1.56-.22,0-1.41-.18-1.41-.18-.69,0-.87.23-.94.48a3.9,3.9,0,0,0-.21.81"/><path class="cls-3" d="M42.7,24H39.79c-.26,0-.26,0-.3.29L37.84,34.49l-2-10.11c0-.28-.09-.34-.41-.34H34.13c-.49,0-.51.08-.56.36L31.49,34.49,30,24.33c-.05-.26-.05-.29-.3-.29h-3c-.31,0-.36,0-.36.41,0,1.12.28,1.53,1.07,1.62l.3,0L29.94,38.6c.08.29.1.35.38.35h2c.32,0,.33,0,.38-.35l2-9.73,1.65,9.74c.06.32.06.34.38.34h2c.27,0,.31-.06.38-.35l2.58-12.52h.29c.8-.09,1.06-.5,1.06-1.62,0-.35-.05-.39-.29-.41"/><path class="cls-3" d="M50.28,37a7,7,0,0,1-.23-2V31.06c0-2.48-1.08-3.58-3.52-3.58-1.71,0-3.51.74-3.51,1.2a4.84,4.84,0,0,0,.19.75c0,.14.16.48.89.43.29,0,1.54-.26,2.06-.26,1.39,0,1.53.8,1.53,1.75v.79c-1.73,0-5.45,0-5.45,3.77,0,2.11,1.17,3.42,3.06,3.42a3.19,3.19,0,0,0,2.57-1.26l.17-.18.05.28c.09.46.18.78.53.78h2.51c.31,0,.35,0,.35-.39,0-1.12-.27-1.52-1.2-1.57m-2.59-.52a2.38,2.38,0,0,1-1.65.91,1.52,1.52,0,0,1-1.44-1.63c0-2,2.42-1.93,3.09-1.88Z"/><path class="cls-3" d="M32.65,18.54h-.27V9.66c0-.21,0-.24-.22-.24H28.65c-.31,0-.34,0-.34.39,0,1.21.32,1.58,1.36,1.58h.25v7.15h-.26c-1.05,0-1.36.38-1.36,1.58,0,.36,0,.39.34.39h5c.3,0,.35,0,.35-.39,0-1.19-.34-1.58-1.36-1.58"/><path class="cls-3" d="M31.13,5.21a1.53,1.53,0,0,0-1.5,1.6,1.56,1.56,0,0,0,1.5,1.6,1.54,1.54,0,0,0,1.46-1.6,1.53,1.53,0,0,0-1.46-1.6"/><path class="cls-3" d="M14.52,8h.07c1.06,0,1.4-.4,1.4-1.63,0-.36-.05-.4-.36-.4H10.8c-.27,0-.31,0-.34.21v.19c0,1.23.33,1.62,1.38,1.63h.07V15.3c0,1.4,0,3.29-2.24,3.29-2.07,0-2.24-1.49-2.24-3.29V8H7.5c1,0,1.37-.4,1.37-1.63V6.16C8.83,6,8.79,6,8.52,6H3.7c-.31,0-.36,0-.36.4C3.34,7.64,3.66,8,4.74,8H4.8V15.3c0,3.92,1.46,5.6,4.86,5.6s4.86-1.68,4.86-5.6Z"/><path class="cls-3" d="M25.72,18.54v-6c0-2.43-.8-3.52-2.59-3.52A4.17,4.17,0,0,0,20,10.67l-.11-.46c-.11-.49-.2-.79-.52-.79H16.63c-.3,0-.34,0-.34.39,0,1.14.28,1.55,1.24,1.57a6.09,6.09,0,0,1,.23,2v5.14c-1,0-1.33.38-1.33,1.58,0,.36.05.39.35.39H20c.2,0,.21,0,.21-.24v-8a2.73,2.73,0,0,1,1.83-1c1.22,0,1.22,1.4,1.22,2v7c0,.21,0,.24.22.24h3.21c.3,0,.35,0,.35-.39,0-1.18-.33-1.57-1.32-1.58"/><path class="cls-3" d="M38.68,20.9c1.43,0,2.59-.37,2.59-.68,0-.06-.08-.48-.13-.69-.2-.83-.28-1.14-1.8-1a.57.57,0,0,1-.48-.14,2.29,2.29,0,0,1-.3-1.48V11.39h1.37c1,0,1.36-.37,1.36-1.58,0-.36,0-.39-.35-.39H38.56V6.31c0-.3,0-.32-.14-.32s-.6.07-.86.1A1.76,1.76,0,0,0,36.11,8V9.42H34.7c-.29,0-.35,0-.35.39,0,1.21.33,1.58,1.36,1.58h.4v5.19c0,2.12,0,4.32,2.57,4.32"/><path class="cls-3" d="M50.6,15.17c0-4.07-1.36-6.14-4-6.14s-4.4,2.43-4.4,6.05c0,4.8,2.45,5.82,4.51,5.82,1.66,0,3.58-.78,3.58-1.27a4.46,4.46,0,0,0-.19-.79c-.07-.24-.22-.49-.92-.46-.54,0-1.41.28-2.21.28-1.53,0-2.31-1-2.32-3H50.2c.33,0,.4-.08.4-.49M44.72,13.7v-.19c.07-.75.22-2.51,1.8-2.51s1.54,1.79,1.54,2.7Z"/><path class="cls-3" d="M60.51,18.54a5.92,5.92,0,0,1-.22-2V5.5c0-.2,0-.23-.22-.23H56.84c-.3,0-.36,0-.36.38,0,1.17.31,1.56,1.28,1.58h.07V9.78l-.2-.14a3,3,0,0,0-2-.61c-2.52,0-3.87,2.21-3.87,6.39,0,3.53,1.22,5.48,3.44,5.48a4.23,4.23,0,0,0,2.91-1.29l.14.48c.1.38.12.42.42.42h2.85c.29,0,.35,0,.35-.39,0-1.19-.32-1.58-1.41-1.58m-4.45.24c-1.49,0-1.78-1.37-1.78-3.75s.31-3.87,1.91-3.87a2.72,2.72,0,0,1,1.64.48v6.29a2.08,2.08,0,0,1-1.77.85"/><path class="cls-3" d="M104.4,42.51a1.34,1.34,0,1,1,1.34,1.34,1.32,1.32,0,0,1-1.34-1.34m2.42,0a1.09,1.09,0,1,0-2.17,0,1.09,1.09,0,1,0,2.17,0m-1.35.8h-.23V41.75h.58q.54,0,.54.45a.4.4,0,0,1-.37.42l.41.69h-.28l-.41-.69h-.24Zm0-.88h.26c.28,0,.4,0,.4-.25s-.1-.23-.34-.23h-.32Z"/></g></g></g></svg>