<svg xmlns="http://www.w3.org/2000/svg" xmlns:xlink="http://www.w3.org/1999/xlink" viewBox="0 0 122.7 58.44"><defs><style>.cls-1{fill:none;}.cls-2{fill:#fff;}.cls-3{fill:#788ec7;}.cls-4{fill:#0056a7;}.cls-5{clip-path:url(#clip-path);}.cls-6{fill:#fcb23d;}.cls-7{fill:#f04e31;}</style><clipPath id="clip-path"><rect class="cls-1" width="122.7" height="58.44"/></clipPath></defs><g id="Layer_2" data-name="Layer 2"><g id="Layer_1-2" data-name="Layer 1"><rect class="cls-2" width="122.7" height="58.44"/><rect class="cls-3" x="71.69" y="5.84" width="45.16" height="46.75"/><rect class="cls-4" x="5.84" y="5.84" width="65.85" height="46.75"/><g class="cls-5"><path class="cls-2" d="M112.93,28.91A18.65,18.65,0,1,1,94.28,10.26a18.67,18.67,0,0,1,18.65,18.65"/><path class="cls-6" d="M84.6,32.56l.82-.38c.23-.12.2-.21.13-.39A8.91,8.91,0,0,1,85.11,29a9.17,9.17,0,1,1,17.57,3.65.22.22,0,0,0,.09.3c.15.07.7.32.87.38s.26,0,.35-.15A10.58,10.58,0,1,0,83.7,29a10.49,10.49,0,0,0,.57,3.42c0,.16.14.26.33.18"/><path class="cls-6" d="M81.91,33.8c.22-.11,1-.45,1.17-.55a.24.24,0,0,0,.13-.34A11.75,11.75,0,1,1,106,29a11.58,11.58,0,0,1-1,4.67.21.21,0,0,0,.11.32l1.18.53c.16.07.27,0,.35-.15A13.4,13.4,0,0,0,107.8,29a13.53,13.53,0,1,0-26.22,4.68c0,.09.1.27.33.16"/><path class="cls-6" d="M78.26,35.48c.26-.13,1.85-.86,2.13-1s.16-.34.12-.46A14.68,14.68,0,1,1,109,29a14.8,14.8,0,0,1-1.18,5.77.3.3,0,0,0,.16.44c.25.12,1.8.8,2,.88s.37.08.51-.23A17.58,17.58,0,1,0,76.7,29a17.44,17.44,0,0,0,1.18,6.32c0,.11.12.31.38.2"/><path class="cls-7" d="M94.29,25.14a1.89,1.89,0,1,0-1.89-1.88,1.88,1.88,0,0,0,1.89,1.88"/><path class="cls-7" d="M95,35a.66.66,0,0,0,.65-.66V30.2a2.83,2.83,0,0,1,.76-1.58l3.89-3.89a.68.68,0,0,0,0-.95l-.71-.7a.65.65,0,0,0-.94,0l-3.51,3.51a1,1,0,0,1-.84.37,1,1,0,0,1-.83-.37l-3.51-3.51a.65.65,0,0,0-.94,0l-.72.7a.68.68,0,0,0,0,.95l3.9,3.89a2.8,2.8,0,0,1,.74,1.58v4.14a.67.67,0,0,0,.67.66Z"/><path class="cls-4" d="M107.24,36.46a12.42,12.42,0,0,0-2.44,2l-.15,0c.19-.22,1-1.3,1.26-1.66.67-1.12-.59-2.16-2-1.37A22.24,22.24,0,0,0,102.09,37L102,37a18.59,18.59,0,0,0,1.18-1.56c.61-.9-.66-1.75-1.76-1.09A23.55,23.55,0,0,0,99.31,36l-.11,0c.17-.17.61-.69.78-.87.65-.73-.28-1.56-1.26-1S96.43,35.92,95,36.86c.68.37,1.89.43,3.8,1.25s2.54,2.72,1.29,4.23-2.92.92-4.43.45c-1.76-.55-2.39-1.12-4.51-1.86-1.38-.48-1.95-.47-1.92-.87s1.22-.18,2.34.23c3.1,1.12,7.23,3.68,8.24.92.8-2.17-2.78-3.11-4.15-3.37-1.91-.37-3.22-1.77-4.87-2.66a8.65,8.65,0,0,0-5.85-1.12,18.13,18.13,0,0,0-5,2.32c-.92.54-.85,1.38,0,2.65a17.56,17.56,0,0,0,29.32-.84c.69-1.12-.39-2.29-2-1.73"/><path class="cls-2" d="M56.86,48.56c0,.51,1.8,1.06,2.75,1.06a3,3,0,0,0,3-2c.71-1.77,3.69-12,3.69-12h.33c.67-.12.91-.52.91-1.54,0-.37,0-.4-.35-.4H64.7c-.23,0-.26,0-.33.28l-2,7.85L60.25,34c-.07-.24-.1-.27-.33-.28H57.47c-.3,0-.35,0-.35.4,0,1,.25,1.42.92,1.54h.34s1.95,6.83,3,9.7l-.15.55c-.33,1.07-.9,1.57-1.79,1.57-.22,0-1.42-.19-1.42-.19-.68-.05-.86.23-.94.48a4.37,4.37,0,0,0-.2.81"/><path class="cls-2" d="M48.54,29.88H45.63c-.26,0-.26,0-.3.29L43.69,40.34l-2-10.12c-.05-.27-.09-.34-.4-.34H40c-.48,0-.51.08-.56.36l-2.07,10.1L35.79,30.17c0-.26,0-.29-.3-.29h-3c-.31,0-.36,0-.36.42,0,1.11.27,1.52,1.06,1.61l.3,0,2.28,12.51c.08.29.11.35.38.35h2c.32,0,.33,0,.38-.35l2-9.72,1.65,9.73c.07.33.07.34.39.34h2c.26,0,.3-.06.37-.35l2.59-12.52h.28c.8-.09,1.06-.5,1.06-1.61,0-.36,0-.4-.29-.42"/><path class="cls-2" d="M56.12,42.83a7.3,7.3,0,0,1-.23-2V36.91c0-2.48-1.07-3.58-3.52-3.58-1.7,0-3.51.73-3.51,1.19a4.57,4.57,0,0,0,.19.75c.06.14.17.48.89.43.29,0,1.54-.26,2.07-.26,1.38,0,1.52.81,1.52,1.76V38c-1.72,0-5.45,0-5.45,3.77,0,2.11,1.17,3.43,3.06,3.43a3.22,3.22,0,0,0,2.58-1.27l.16-.18.06.29c.08.46.17.77.52.77H57c.31,0,.35,0,.35-.38,0-1.13-.27-1.52-1.2-1.58m-2.59-.52a2.32,2.32,0,0,1-1.64.91,1.52,1.52,0,0,1-1.45-1.63c0-2.05,2.43-1.93,3.09-1.88Z"/><path class="cls-2" d="M38.49,24.39h-.27V15.51c0-.22,0-.25-.22-.25H34.49c-.3,0-.34,0-.34.39,0,1.21.32,1.58,1.36,1.58h.25v7.15H35.5c-1,0-1.36.37-1.36,1.57,0,.36,0,.39.35.39h5c.3,0,.35,0,.35-.39,0-1.19-.34-1.57-1.36-1.57"/><path class="cls-2" d="M37,11.06a1.53,1.53,0,0,0-1.5,1.59,1.55,1.55,0,0,0,1.5,1.6,1.53,1.53,0,0,0,1.46-1.6A1.53,1.53,0,0,0,37,11.06"/><path class="cls-2" d="M20.37,13.86h.06c1.07,0,1.4-.39,1.4-1.63,0-.36,0-.4-.35-.4H16.65c-.28,0-.32.05-.35.22v.18c0,1.23.34,1.62,1.38,1.63h.07v7.28c0,1.4,0,3.3-2.24,3.3-2.07,0-2.23-1.49-2.23-3.3V13.86h.07c1,0,1.38-.4,1.38-1.63l0-.23c0-.13-.07-.17-.34-.17H9.54c-.31,0-.36,0-.36.4,0,1.25.32,1.63,1.4,1.63h.07v7.28c0,3.92,1.45,5.6,4.85,5.6s4.87-1.68,4.87-5.6Z"/><path class="cls-2" d="M31.56,24.39v-6c0-2.43-.8-3.52-2.58-3.52a4.23,4.23,0,0,0-3.17,1.63l-.11-.46c-.11-.48-.2-.79-.51-.79H22.48c-.31,0-.35,0-.35.39,0,1.15.29,1.55,1.25,1.58a6.44,6.44,0,0,1,.22,2v5.15c-1,0-1.33.38-1.33,1.57,0,.36.05.39.35.39h3.23c.19,0,.21,0,.21-.24v-8a2.72,2.72,0,0,1,1.82-1c1.23,0,1.23,1.39,1.23,2v7c0,.21,0,.24.21.24h3.22c.29,0,.34,0,.34-.39,0-1.18-.33-1.56-1.32-1.57"/><path class="cls-2" d="M44.52,26.74c1.43,0,2.6-.37,2.6-.68,0,0-.09-.48-.14-.68-.2-.84-.28-1.15-1.8-1a.54.54,0,0,1-.48-.14c-.29-.29-.29-1-.29-1.47V17.23h1.36c1,0,1.36-.37,1.36-1.58,0-.36-.05-.39-.35-.39H44.41V12.15c0-.3,0-.31-.14-.32s-.61.07-.87.11A1.75,1.75,0,0,0,42,13.85v1.41h-1.4c-.3,0-.35,0-.35.39,0,1.21.32,1.58,1.36,1.58H42v5.2c0,2.12,0,4.31,2.57,4.31"/><path class="cls-2" d="M56.44,21c0-4.07-1.35-6.13-4-6.13s-4.4,2.42-4.4,6c0,4.81,2.45,5.82,4.51,5.82,1.66,0,3.59-.78,3.59-1.27a3.91,3.91,0,0,0-.2-.78c-.07-.25-.22-.5-.92-.46-.54,0-1.4.27-2.21.27-1.53,0-2.31-1-2.32-3h5.58c.32,0,.39-.08.39-.49m-5.88-1.46,0-.2c.06-.75.22-2.51,1.79-2.51s1.54,1.79,1.54,2.71Z"/><path class="cls-2" d="M66.35,24.39a6.33,6.33,0,0,1-.22-2v-11c0-.21,0-.24-.22-.24H62.68c-.3,0-.36,0-.36.38,0,1.17.32,1.56,1.29,1.58h.06v2.55l-.2-.13a3,3,0,0,0-1.95-.61c-2.52,0-3.86,2.2-3.86,6.39,0,3.52,1.22,5.47,3.43,5.47A4.24,4.24,0,0,0,64,25.46l.14.48c.11.37.13.41.43.41h2.84c.3,0,.35,0,.35-.39,0-1.18-.31-1.57-1.41-1.57m-4.44.23c-1.5,0-1.79-1.37-1.79-3.75S60.43,17,62,17a2.71,2.71,0,0,1,1.63.48v6.3a2.1,2.1,0,0,1-1.76.84"/><path class="cls-2" d="M110.24,48.36a1.35,1.35,0,0,1,2.69,0,1.35,1.35,0,0,1-2.69,0m2.43,0a1.09,1.09,0,1,0-1.09,1.12,1.08,1.08,0,0,0,1.09-1.12m-1.36.8h-.23V47.6h.59c.36,0,.54.14.54.44a.39.39,0,0,1-.38.42l.42.7H112l-.42-.69h-.24Zm0-.89h.26c.29,0,.4,0,.4-.24s-.1-.23-.34-.23h-.32Z"/></g></g></g></svg>