<svg xmlns="http://www.w3.org/2000/svg" viewBox="0 0 54.55 35.06"><defs><style>.cls-1{fill:#788ec7;}.cls-2{fill:#0056a7;}.cls-3{fill:#fff;}.cls-4{fill:#fcb23d;}.cls-5{fill:#f04e31;}</style></defs><g id="Layer_2" data-name="Layer 2"><g id="Layer_1-2" data-name="Layer 1"><rect class="cls-1" x="32.36" width="22.19" height="22.94"/><rect class="cls-2" width="32.36" height="22.94"/><path class="cls-3" d="M52.62,11.32a9.17,9.17,0,1,1-9.17-9.15,9.17,9.17,0,0,1,9.17,9.15"/><path class="cls-4" d="M38.7,13.11l.4-.19c.11-.05.1-.1.06-.19A4.59,4.59,0,0,1,39,11.34a4.51,4.51,0,0,1,9,0,4.58,4.58,0,0,1-.37,1.79.1.1,0,0,0,0,.15l.42.19c.08,0,.13,0,.18-.07a5.27,5.27,0,0,0,.42-2.06A5.2,5.2,0,1,0,38.54,13c0,.08.06.13.16.09"/><path class="cls-4" d="M37.38,13.72c.1-.06.48-.22.57-.27a.12.12,0,0,0,.07-.17,5.69,5.69,0,0,1-.34-1.94,5.77,5.77,0,1,1,11.07,2.29s0,.13,0,.16l.58.26c.08,0,.13,0,.17-.07a6.47,6.47,0,0,0,.55-2.64,6.65,6.65,0,0,0-13.3,0,6.52,6.52,0,0,0,.42,2.3.11.11,0,0,0,.16.08"/><path class="cls-4" d="M35.58,14.54l1.05-.48c.14-.06.08-.17.06-.23a7.05,7.05,0,0,1-.45-2.49,7.21,7.21,0,1,1,13.84,2.83.15.15,0,0,0,.09.22l1,.43c.11,0,.19,0,.25-.11a8.63,8.63,0,1,0-16.58-3.37,8.38,8.38,0,0,0,.58,3.1c0,.06.06.16.18.1"/><path class="cls-5" d="M43.46,9.47a.93.93,0,1,0-.93-.92.93.93,0,0,0,.93.92"/><path class="cls-5" d="M43.8,14.31a.32.32,0,0,0,.32-.33V12a1.39,1.39,0,0,1,.37-.77L46.4,9.27a.33.33,0,0,0,0-.47l-.35-.34a.32.32,0,0,0-.46,0l-1.72,1.72a.51.51,0,0,1-.41.18.48.48,0,0,1-.41-.18L41.32,8.46a.32.32,0,0,0-.46,0l-.35.34a.33.33,0,0,0,0,.47l1.91,1.91a1.39,1.39,0,0,1,.37.77v2a.33.33,0,0,0,.33.33Z"/><path class="cls-2" d="M49.82,15a6.65,6.65,0,0,0-1.2,1h-.07a8.51,8.51,0,0,0,.62-.81c.33-.55-.29-1.06-1-.67a10,10,0,0,0-.91.77l-.06,0a9.06,9.06,0,0,0,.58-.77c.3-.44-.33-.86-.87-.53a10.4,10.4,0,0,0-1,.79h-.06c.09-.08.3-.33.38-.42.32-.36-.13-.77-.61-.52s-1.13.9-1.86,1.36c.34.18.93.21,1.87.61a1.29,1.29,0,0,1,.64,2.08c-.57.68-1.44.45-2.18.22s-1.17-.55-2.22-.91c-.68-.24-1-.24-.94-.43s.6-.09,1.15.11c1.52.55,3.55,1.81,4,.45.39-1.06-1.37-1.52-2-1.65a9,9,0,0,1-2.4-1.3,4.23,4.23,0,0,0-2.87-.56A9.28,9.28,0,0,0,36.36,15c-.45.27-.41.68,0,1.3a8.62,8.62,0,0,0,14.4-.41c.34-.55-.19-1.12-1-.85"/><path class="cls-3" d="M25.07,21c0,.25.89.52,1.35.52a1.5,1.5,0,0,0,1.45-1c.35-.86,1.81-5.86,1.81-5.86h.16c.33-.06.45-.25.45-.76,0-.18,0-.19-.17-.19h-1.2c-.11,0-.12,0-.16.14l-1,3.85-1-3.85c0-.12,0-.14-.16-.14h-1.2c-.15,0-.17,0-.17.19,0,.51.12.7.45.76h.17s1,3.35,1.46,4.76l-.07.27c-.16.53-.45.77-.89.77-.1,0-.69-.09-.69-.09-.34,0-.43.11-.46.23a2.17,2.17,0,0,0-.1.4"/><path class="cls-3" d="M21,11.8H19.55c-.13,0-.13,0-.15.14l-.8,5-1-5c0-.13,0-.16-.19-.16h-.66c-.24,0-.25,0-.28.17l-1,5-.77-5c0-.13,0-.14-.14-.14H13.1c-.16,0-.18,0-.18.2,0,.55.14.75.52.79h.15l1.12,6.14c0,.14,0,.17.19.17h1c.15,0,.16,0,.18-.17l1-4.77.81,4.77c0,.16,0,.17.19.17h1c.13,0,.15,0,.18-.17l1.27-6.14h.14c.39,0,.53-.24.53-.79,0-.18,0-.19-.15-.2"/><path class="cls-3" d="M24.71,18.15a3.29,3.29,0,0,1-.12-1V15.24c0-1.22-.52-1.76-1.73-1.76-.84,0-1.72.36-1.72.59a2.51,2.51,0,0,0,.09.37c0,.07.08.24.44.21.14,0,.76-.13,1-.13.69,0,.75.4.75.86v.39c-.85,0-2.68,0-2.68,1.85a1.48,1.48,0,0,0,1.51,1.68,1.57,1.57,0,0,0,1.26-.62l.09-.09,0,.14c0,.23.09.38.26.38h1.23c.16,0,.18,0,.18-.19,0-.55-.14-.74-.59-.77m-1.28-.26a1.12,1.12,0,0,1-.8.45.75.75,0,0,1-.72-.8c0-1,1.2-.95,1.52-.92Z"/><path class="cls-3" d="M16,9.1h-.13V4.74c0-.1,0-.12-.11-.12H14.08c-.15,0-.17,0-.17.19,0,.6.16.78.67.78h.12V9.1h-.13c-.51,0-.67.18-.67.77,0,.18,0,.19.18.19h2.46c.15,0,.17,0,.17-.19,0-.58-.16-.77-.67-.77"/><path class="cls-3" d="M15.29,2.56a.75.75,0,0,0-.73.78.77.77,0,0,0,.73.79A.76.76,0,0,0,16,3.34a.75.75,0,0,0-.72-.78"/><path class="cls-3" d="M7.14,3.93h0c.52,0,.69-.19.69-.79,0-.18,0-.2-.18-.2H5.31c-.14,0-.16,0-.17.1v.1c0,.6.17.79.68.79h0V7.51c0,.68,0,1.61-1.1,1.61s-1.1-.73-1.1-1.61V3.93h0c.51,0,.68-.19.68-.79V3c0-.06,0-.08-.16-.08H1.82c-.16,0-.18,0-.18.2,0,.61.16.79.69.79h0V7.51c0,1.92.71,2.75,2.39,2.75s2.39-.83,2.39-2.75Z"/><path class="cls-3" d="M12.64,9.1V6.16c0-1.19-.4-1.73-1.27-1.73a2.07,2.07,0,0,0-1.56.81L9.76,5c-.06-.24-.1-.39-.26-.39H8.17c-.15,0-.17,0-.17.19,0,.57.14.76.62.78a3.21,3.21,0,0,1,.11,1V9.1c-.51,0-.66.19-.66.77,0,.18,0,.19.17.19H9.83c.1,0,.1,0,.1-.11V6a1.37,1.37,0,0,1,.9-.48c.6,0,.6.68.6,1V10c0,.1,0,.11.11.11h1.58c.14,0,.17,0,.17-.19,0-.58-.16-.76-.65-.77"/><path class="cls-3" d="M19,10.26c.7,0,1.27-.19,1.27-.34s0-.23-.06-.34c-.1-.4-.14-.56-.89-.46a.29.29,0,0,1-.24-.07A1.19,1.19,0,0,1,19,8.32V5.59h.67c.51,0,.67-.18.67-.78,0-.18,0-.19-.17-.19H19V3.1c0-.15,0-.16-.07-.16L18.46,3a.86.86,0,0,0-.72.94v.69h-.69c-.14,0-.17,0-.17.19,0,.6.16.78.67.78h.19V8.14c0,1,0,2.12,1.27,2.12"/><path class="cls-3" d="M24.86,7.44c0-2-.66-3-2-3s-2.17,1.19-2.17,3c0,2.36,1.21,2.86,2.22,2.86.82,0,1.76-.39,1.76-.63a2.28,2.28,0,0,0-.09-.38c0-.12-.11-.25-.45-.23s-.7.14-1.09.14c-.75,0-1.14-.47-1.14-1.48h2.74c.16,0,.19,0,.19-.24M22,6.72V6.63c0-.37.11-1.23.88-1.23s.76.88.76,1.32Z"/><path class="cls-3" d="M29.73,9.1a3.15,3.15,0,0,1-.11-1V2.7c0-.1,0-.11-.1-.11H27.93c-.15,0-.18,0-.18.18,0,.58.16.77.63.78h0V4.8l-.09-.07a1.47,1.47,0,0,0-1-.3c-1.24,0-1.9,1.09-1.9,3.14,0,1.73.6,2.69,1.69,2.69a2.1,2.1,0,0,0,1.43-.63l.07.23c.05.18.06.2.2.2h1.4c.15,0,.17,0,.17-.19,0-.58-.15-.77-.69-.77m-2.18.11c-.73,0-.88-.67-.88-1.83s.15-1.91.94-1.91a1.35,1.35,0,0,1,.8.24V8.8a1,1,0,0,1-.86.41"/><path class="cls-3" d="M51.3,20.86a.66.66,0,1,1,.66.66.66.66,0,0,1-.66-.66m1.19,0a.52.52,0,0,0-.53-.54.55.55,0,0,0,0,1.09.53.53,0,0,0,.53-.55m-.67.39h-.11v-.76H52c.18,0,.26.07.26.21a.19.19,0,0,1-.18.21l.2.34h-.13l-.21-.34h-.12Zm0-.43H52c.14,0,.2,0,.2-.12s0-.12-.17-.12h-.16Z"/><path class="cls-2" d="M3.51,30.29v2.42a1.23,1.23,0,0,1-.38.95,1.48,1.48,0,0,1-1,.35,1.54,1.54,0,0,1-1-.34,1.21,1.21,0,0,1-.38-.94V30.29h.76v2.42a.69.69,0,0,0,.17.53.65.65,0,0,0,.48.16c.42,0,.64-.22.65-.67V30.29Z"/><path class="cls-2" d="M4.75,31.23l0,.32a1,1,0,0,1,.79-.37.77.77,0,0,1,.64.25,1.14,1.14,0,0,1,.22.77V34H5.69V32.21a.38.38,0,0,0-.43-.44.52.52,0,0,0-.47.26V34H4.06V31.23Z"/><path class="cls-2" d="M7,30.52a.36.36,0,0,1,.11-.26.37.37,0,0,1,.3-.11.4.4,0,0,1,.3.11.36.36,0,0,1,.11.26.35.35,0,0,1-.12.28.39.39,0,0,1-.29.1.44.44,0,0,1-.3-.1A.38.38,0,0,1,7,30.52ZM7.74,34H7V31.23h.73Z"/><path class="cls-2" d="M9.22,30.56v.67h.47v.53H9.22v1.37a.29.29,0,0,0,.06.21.26.26,0,0,0,.22.07l.21,0v.55a1.31,1.31,0,0,1-.44.07.7.7,0,0,1-.78-.78V31.76h-.4v-.53h.4v-.67Z"/><path class="cls-2" d="M11.35,34A1.29,1.29,0,0,1,10,32.66v-.07a1.78,1.78,0,0,1,.16-.74,1.28,1.28,0,0,1,.45-.5,1.36,1.36,0,0,1,.67-.17,1.14,1.14,0,0,1,.88.35,1.42,1.42,0,0,1,.32,1v.3H10.73a.71.71,0,0,0,.22.43.64.64,0,0,0,.45.16.8.8,0,0,0,.66-.3l.36.4a1.16,1.16,0,0,1-.45.36A1.41,1.41,0,0,1,11.35,34Zm-.08-2.24a.49.49,0,0,0-.36.14.81.81,0,0,0-.17.42h1v0a.6.6,0,0,0-.13-.38A.48.48,0,0,0,11.27,31.77Z"/><path class="cls-2" d="M12.77,32.57a1.64,1.64,0,0,1,.29-1,.93.93,0,0,1,.78-.38.83.83,0,0,1,.66.3V30.09h.74V34h-.66l0-.29a.87.87,0,0,1-.7.34.93.93,0,0,1-.77-.38A1.67,1.67,0,0,1,12.77,32.57Zm.73.06a1.09,1.09,0,0,0,.14.59.45.45,0,0,0,.39.2.48.48,0,0,0,.47-.28V32.06a.48.48,0,0,0-.47-.29C13.68,31.77,13.5,32.06,13.5,32.63Z"/><path class="cls-2" d="M20,32.9l.49-2.61h.76L20.43,34h-.76l-.6-2.46L18.47,34h-.76l-.81-3.67h.75l.5,2.6.61-2.6h.64Z"/><path class="cls-2" d="M23.19,34a1.26,1.26,0,0,1-.07-.25.89.89,0,0,1-.69.3,1,1,0,0,1-.66-.23.75.75,0,0,1-.27-.59.76.76,0,0,1,.32-.66,1.56,1.56,0,0,1,.93-.24h.34v-.15a.45.45,0,0,0-.1-.31.38.38,0,0,0-.3-.11.42.42,0,0,0-.29.09.3.3,0,0,0-.11.24h-.73a.73.73,0,0,1,.15-.44.93.93,0,0,1,.41-.31,1.46,1.46,0,0,1,.6-.12,1.21,1.21,0,0,1,.81.25.92.92,0,0,1,.29.72v1.18a1.32,1.32,0,0,0,.11.59v0Zm-.6-.51a.6.6,0,0,0,.3-.07.46.46,0,0,0,.2-.19v-.47h-.27c-.37,0-.56.12-.59.38v0a.27.27,0,0,0,.1.22A.36.36,0,0,0,22.59,33.45Z"/><path class="cls-2" d="M25.4,32.93l.51-1.7h.78l-1.1,3.15-.06.15a.83.83,0,0,1-.81.53A1.25,1.25,0,0,1,24.4,35v-.55h.11a.63.63,0,0,0,.31-.06.39.39,0,0,0,.16-.21l.09-.22-1-2.74h.79Z"/><path class="cls-2" d="M28.15,32.57a1.53,1.53,0,0,1,.16-.72,1.09,1.09,0,0,1,.45-.5,1.37,1.37,0,0,1,.68-.17,1.21,1.21,0,0,1,.9.34,1.33,1.33,0,0,1,.4.92v.18a1.44,1.44,0,0,1-.35,1,1.37,1.37,0,0,1-1.89,0,1.46,1.46,0,0,1-.35-1Zm.73,0a1,1,0,0,0,.15.6.5.5,0,0,0,.42.2.5.5,0,0,0,.41-.2,1.11,1.11,0,0,0,.15-.65,1,1,0,0,0-.15-.59.49.49,0,0,0-.42-.21A.47.47,0,0,0,29,32,1.08,1.08,0,0,0,28.88,32.62Z"/><path class="cls-2" d="M31.39,34v-2.2H31v-.53h.41V31a1,1,0,0,1,.26-.71,1,1,0,0,1,.74-.26,1.9,1.9,0,0,1,.37,0v.57a.82.82,0,0,0-.23,0c-.27,0-.41.12-.41.38v.22h.54v.53h-.54V34Z"/><path class="cls-2" d="M35.74,33.05l.83-2.76h.84L36.13,34h-.79l-1.27-3.67h.84Z"/><path class="cls-2" d="M39,34a1.29,1.29,0,0,1-1.36-1.35v-.07a1.78,1.78,0,0,1,.16-.74,1.28,1.28,0,0,1,.45-.5,1.36,1.36,0,0,1,.67-.17,1.14,1.14,0,0,1,.88.35,1.46,1.46,0,0,1,.32,1v.3H38.35a.71.71,0,0,0,.22.43.61.61,0,0,0,.45.16.8.8,0,0,0,.66-.3l.35.4a1.13,1.13,0,0,1-.44.36A1.41,1.41,0,0,1,39,34Zm-.09-2.24a.48.48,0,0,0-.35.14.81.81,0,0,0-.17.42h1v0a.55.55,0,0,0-.14-.38A.45.45,0,0,0,38.88,31.77Z"/><path class="cls-2" d="M42,31.91l-.26,0a.53.53,0,0,0-.54.28V34h-.73V31.23h.69l0,.33a.64.64,0,0,1,.6-.38.85.85,0,0,1,.23,0Z"/><path class="cls-2" d="M43.08,31.23l0,.31a.94.94,0,0,1,.78-.36.73.73,0,0,1,.73.42.93.93,0,0,1,.82-.42.81.81,0,0,1,.66.26,1.15,1.15,0,0,1,.22.78V34h-.73V32.22a.51.51,0,0,0-.09-.34.44.44,0,0,0-.33-.11.46.46,0,0,0-.45.32V34H44V32.22a.51.51,0,0,0-.09-.34.41.41,0,0,0-.32-.11.47.47,0,0,0-.45.26V34h-.73V31.23Z"/><path class="cls-2" d="M46.76,32.57a1.66,1.66,0,0,1,.15-.72,1.22,1.22,0,0,1,.45-.5,1.41,1.41,0,0,1,.69-.17,1.23,1.23,0,0,1,.9.34,1.37,1.37,0,0,1,.39.92v.18a1.4,1.4,0,0,1-.35,1,1.35,1.35,0,0,1-1.88,0,1.42,1.42,0,0,1-.35-1Zm.73,0a1,1,0,0,0,.14.6.5.5,0,0,0,.42.2.48.48,0,0,0,.41-.2,1.11,1.11,0,0,0,.15-.65,1,1,0,0,0-.15-.59.47.47,0,0,0-.41-.21.49.49,0,0,0-.42.21A1.08,1.08,0,0,0,47.49,32.62Z"/><path class="cls-2" d="M50.46,31.23l0,.32a.92.92,0,0,1,.78-.37.8.8,0,0,1,.65.25,1.2,1.2,0,0,1,.21.77V34h-.72V32.21a.45.45,0,0,0-.11-.33.42.42,0,0,0-.33-.11.5.5,0,0,0-.46.26V34h-.73V31.23Z"/><path class="cls-2" d="M53.56,30.56v.67H54v.53h-.47v1.37a.29.29,0,0,0,.06.21.26.26,0,0,0,.22.07l.22,0v.55a1.37,1.37,0,0,1-.45.07.7.7,0,0,1-.78-.78V31.76h-.4v-.53h.4v-.67Z"/></g></g></svg>