<svg xmlns="http://www.w3.org/2000/svg" viewBox="0 0 56.03 35.06"><defs><style>.cls-1{fill:#788ec7;}.cls-2{fill:#0056a7;}.cls-3{fill:#fff;}.cls-4{fill:#fcb23d;}.cls-5{fill:#f04e31;}</style></defs><g id="Layer_2" data-name="Layer 2"><g id="Layer_1-2" data-name="Layer 1"><rect class="cls-1" x="33.1" width="22.19" height="22.94"/><rect class="cls-2" x="0.74" width="32.36" height="22.94"/><path class="cls-3" d="M53.36,11.32a9.17,9.17,0,1,1-9.17-9.15,9.17,9.17,0,0,1,9.17,9.15"/><path class="cls-4" d="M39.44,13.11l.4-.19c.11-.05.1-.1.06-.19a4.59,4.59,0,0,1-.21-1.39,4.51,4.51,0,0,1,9,0,4.41,4.41,0,0,1-.38,1.79.12.12,0,0,0,0,.15l.43.19c.08,0,.13,0,.18-.07a5.27,5.27,0,0,0,.42-2.06,5.2,5.2,0,0,0-10.39,0A5.47,5.47,0,0,0,39.27,13c0,.08.07.13.17.09"/><path class="cls-4" d="M38.12,13.72c.1-.06.48-.22.57-.27a.11.11,0,0,0,.06-.17,5.94,5.94,0,0,1-.33-1.94,5.77,5.77,0,1,1,11.07,2.29s-.05.13,0,.16l.58.26c.08,0,.13,0,.17-.07a6.47,6.47,0,0,0,.55-2.64,6.65,6.65,0,0,0-13.3,0,6.74,6.74,0,0,0,.41,2.3s0,.13.17.08"/><path class="cls-4" d="M36.32,14.54l1-.48c.14-.06.08-.17.06-.23A7.05,7.05,0,0,1,37,11.34a7.21,7.21,0,1,1,13.84,2.83.15.15,0,0,0,.08.22l1,.43c.1,0,.18,0,.25-.11a8.63,8.63,0,1,0-16.58-3.37,8.38,8.38,0,0,0,.58,3.1c0,.06.06.16.18.1"/><path class="cls-5" d="M44.2,9.47a.93.93,0,1,0-.93-.92.92.92,0,0,0,.93.92"/><path class="cls-5" d="M44.54,14.31a.33.33,0,0,0,.32-.33V12a1.39,1.39,0,0,1,.37-.77l1.91-1.91a.33.33,0,0,0,0-.47l-.35-.34a.32.32,0,0,0-.46,0l-1.72,1.72a.51.51,0,0,1-.41.18.48.48,0,0,1-.41-.18L42.06,8.46a.32.32,0,0,0-.46,0l-.35.34a.33.33,0,0,0,0,.47l1.91,1.91a1.39,1.39,0,0,1,.37.77v2a.32.32,0,0,0,.32.33Z"/><path class="cls-2" d="M50.56,15a6.65,6.65,0,0,0-1.2,1h-.07c.09-.1.51-.63.62-.81.33-.55-.29-1.06-1-.67a8.77,8.77,0,0,0-.91.77l-.06,0a9.06,9.06,0,0,0,.58-.77c.3-.44-.33-.86-.87-.53a10.4,10.4,0,0,0-1,.79h-.06c.09-.08.3-.33.38-.42.32-.36-.13-.77-.61-.52s-1.13.9-1.86,1.36c.34.18.93.21,1.87.61A1.28,1.28,0,0,1,47,17.91c-.56.68-1.43.45-2.17.22s-1.18-.55-2.22-.91c-.68-.24-1-.24-.94-.43s.6-.09,1.15.11c1.52.55,3.55,1.81,4,.45.39-1.06-1.37-1.52-2-1.65a9,9,0,0,1-2.4-1.3,4.23,4.23,0,0,0-2.87-.56A9.28,9.28,0,0,0,37.1,15c-.45.27-.42.68,0,1.3a8.63,8.63,0,0,0,14.41-.41c.34-.55-.19-1.12-1-.85"/><path class="cls-3" d="M25.81,21c0,.25.88.52,1.35.52a1.5,1.5,0,0,0,1.45-1c.35-.86,1.81-5.86,1.81-5.86h.16c.33-.06.45-.25.45-.76,0-.18,0-.19-.17-.19h-1.2c-.11,0-.13,0-.16.14l-1,3.85-1-3.85c0-.12,0-.14-.16-.14h-1.2c-.15,0-.17,0-.17.19,0,.51.12.7.45.76h.17s1,3.35,1.46,4.76l-.07.27c-.17.53-.45.77-.89.77-.1,0-.69-.09-.69-.09-.34,0-.43.11-.46.23a2.17,2.17,0,0,0-.1.4"/><path class="cls-3" d="M21.72,11.8H20.29c-.13,0-.13,0-.15.14l-.81,5-1-5c0-.13,0-.16-.2-.16h-.65c-.24,0-.25,0-.28.17l-1,5-.76-5c0-.13,0-.14-.14-.14H13.84c-.16,0-.18,0-.18.2,0,.55.13.75.52.79h.15l1.12,6.14c0,.14.05.17.19.17h1c.16,0,.17,0,.19-.17l1-4.77.81,4.77c0,.16,0,.17.19.17h1c.13,0,.15,0,.18-.17L21.2,12.8h.14c.39,0,.52-.24.52-.79,0-.18,0-.19-.14-.2"/><path class="cls-3" d="M25.44,18.15a3.79,3.79,0,0,1-.11-1V15.24c0-1.22-.53-1.76-1.73-1.76-.84,0-1.72.36-1.72.59a1.62,1.62,0,0,0,.09.37c0,.07.08.24.44.21.14,0,.75-.13,1-.13.68,0,.75.4.75.86v.39c-.85,0-2.68,0-2.68,1.85A1.48,1.48,0,0,0,23,19.3a1.59,1.59,0,0,0,1.26-.62l.08-.09,0,.14c0,.23.08.38.26.38h1.23c.15,0,.17,0,.17-.19,0-.55-.13-.74-.59-.77m-1.27-.26a1.12,1.12,0,0,1-.81.45.75.75,0,0,1-.71-.8c0-1,1.19-.95,1.52-.92Z"/><path class="cls-3" d="M16.78,9.1h-.13V4.74c0-.11,0-.12-.11-.12H14.82c-.15,0-.17,0-.17.19,0,.6.16.78.67.78h.12V9.1h-.13c-.51,0-.67.18-.67.77,0,.18,0,.19.17.19h2.47c.14,0,.17,0,.17-.19,0-.58-.17-.77-.67-.77"/><path class="cls-3" d="M16,2.56a.75.75,0,0,0-.73.78.77.77,0,0,0,.73.79.76.76,0,0,0,.72-.79A.75.75,0,0,0,16,2.56"/><path class="cls-3" d="M7.87,3.93h0c.52,0,.69-.19.69-.79,0-.18,0-.2-.18-.2H6.05c-.14,0-.16,0-.17.1v.1c0,.6.17.79.68.79h0V7.51c0,.68,0,1.61-1.09,1.61s-1.1-.73-1.1-1.61V3.93h0c.51,0,.68-.19.68-.79V3c0-.06,0-.08-.17-.08H2.55c-.15,0-.17,0-.17.2,0,.61.15.79.69.79h0V7.51c0,1.92.71,2.75,2.39,2.75s2.38-.83,2.38-2.75Z"/><path class="cls-3" d="M13.38,9.1V6.16c0-1.19-.4-1.73-1.27-1.73a2.07,2.07,0,0,0-1.56.81L10.5,5c-.06-.24-.1-.39-.26-.39H8.91c-.15,0-.17,0-.17.19,0,.56.14.76.61.78a2.81,2.81,0,0,1,.12,1V9.1c-.51,0-.66.19-.66.77,0,.18,0,.19.17.19h1.59c.1,0,.1,0,.1-.11V6a1.37,1.37,0,0,1,.9-.48c.6,0,.6.68.6,1V10c0,.1,0,.11.11.11h1.57c.15,0,.18,0,.18-.19,0-.58-.17-.77-.65-.77"/><path class="cls-3" d="M19.74,10.26c.71,0,1.28-.19,1.28-.34A2.93,2.93,0,0,0,21,9.58c-.1-.4-.13-.56-.88-.46a.28.28,0,0,1-.24-.07,1.19,1.19,0,0,1-.14-.73V5.59h.67c.51,0,.67-.18.67-.78,0-.18,0-.19-.18-.19H19.69V3.1c0-.15,0-.16-.07-.16L19.2,3a.86.86,0,0,0-.72.94v.69h-.69c-.15,0-.17,0-.17.19,0,.6.16.78.67.78h.19V8.14c0,1,0,2.12,1.26,2.12"/><path class="cls-3" d="M25.6,7.44c0-2-.66-3-2-3s-2.17,1.19-2.17,3c0,2.36,1.21,2.86,2.22,2.86.81,0,1.76-.39,1.76-.63a2.28,2.28,0,0,0-.09-.38c0-.12-.11-.25-.46-.23s-.69.14-1.08.14c-.75,0-1.14-.47-1.14-1.48h2.74c.16,0,.19,0,.19-.24m-2.89-.72V6.63c0-.37.11-1.23.88-1.23s.76.88.76,1.32Z"/><path class="cls-3" d="M30.47,9.1a2.9,2.9,0,0,1-.11-1V2.7c0-.1,0-.12-.11-.12H28.67c-.15,0-.18,0-.18.19,0,.58.15.77.63.78h0V4.8l-.09-.07a1.47,1.47,0,0,0-1-.3c-1.24,0-1.9,1.09-1.9,3.14,0,1.73.6,2.69,1.69,2.69a2.09,2.09,0,0,0,1.43-.64l.07.24c.05.18.06.2.2.2H31c.15,0,.17,0,.17-.19,0-.58-.15-.77-.69-.77m-2.18.11c-.74,0-.88-.67-.88-1.83s.15-1.91.94-1.91a1.35,1.35,0,0,1,.8.24V8.8a1,1,0,0,1-.86.41"/><path class="cls-3" d="M52,20.86a.66.66,0,0,1,.65-.65.66.66,0,1,1,0,1.31.66.66,0,0,1-.65-.66m1.19,0a.54.54,0,1,0-.54.55.53.53,0,0,0,.54-.55m-.67.39h-.11v-.76h.29c.17,0,.26.07.26.21a.19.19,0,0,1-.18.21l.2.34h-.14l-.2-.34h-.12Zm0-.43h.13c.14,0,.2,0,.2-.12s0-.12-.17-.12h-.16Z"/><path class="cls-2" d="M2.82,30.29V32.7a1.26,1.26,0,0,1-.38,1,1.48,1.48,0,0,1-1,.35,1.49,1.49,0,0,1-1-.34A1.19,1.19,0,0,1,0,32.73V30.29H.76v2.42a.69.69,0,0,0,.17.52.64.64,0,0,0,.48.17c.42,0,.64-.22.65-.67V30.29Z"/><path class="cls-2" d="M4.06,31.23l0,.31a1,1,0,0,1,.79-.36.8.8,0,0,1,.65.25,1.19,1.19,0,0,1,.21.76V34H5V32.21a.45.45,0,0,0-.1-.33.44.44,0,0,0-.33-.11.5.5,0,0,0-.46.26V34H3.38V31.23Z"/><path class="cls-2" d="M6.28,30.52a.37.37,0,0,1,.11-.27.5.5,0,0,1,.6,0,.37.37,0,0,1,.11.27A.41.41,0,0,1,7,30.8a.5.5,0,0,1-.6,0A.41.41,0,0,1,6.28,30.52ZM7.06,34H6.33V31.23h.73Z"/><path class="cls-2" d="M8.53,30.56v.67H9v.53H8.53v1.37a.29.29,0,0,0,.06.21.26.26,0,0,0,.22.07l.22,0v.55a1.37,1.37,0,0,1-.45.07.7.7,0,0,1-.78-.78V31.76H7.4v-.53h.4v-.67Z"/><path class="cls-2" d="M10.66,34a1.34,1.34,0,0,1-1-.37,1.31,1.31,0,0,1-.37-1v-.07a1.61,1.61,0,0,1,.16-.74,1.15,1.15,0,0,1,.45-.5,1.3,1.3,0,0,1,.66-.17,1.13,1.13,0,0,1,.88.35,1.42,1.42,0,0,1,.33,1v.3H10.05a.66.66,0,0,0,.21.43.64.64,0,0,0,.45.16.8.8,0,0,0,.66-.3l.36.4a1.16,1.16,0,0,1-.45.36A1.52,1.52,0,0,1,10.66,34Zm-.08-2.24a.47.47,0,0,0-.35.14.81.81,0,0,0-.18.42h1v0a.54.54,0,0,0-.13-.38A.48.48,0,0,0,10.58,31.77Z"/><path class="cls-2" d="M12.09,32.57a1.64,1.64,0,0,1,.28-1,.92.92,0,0,1,.79-.38.85.85,0,0,1,.66.3V30.09h.73V34h-.66l0-.29a.87.87,0,0,1-.7.34.93.93,0,0,1-.77-.38A1.67,1.67,0,0,1,12.09,32.57Zm.73.06a1.1,1.1,0,0,0,.13.59.45.45,0,0,0,.39.2.5.5,0,0,0,.48-.28V32.06a.49.49,0,0,0-.48-.29C13,31.77,12.82,32.06,12.82,32.63Z"/><path class="cls-2" d="M19.31,32.9l.5-2.61h.75L19.75,34H19l-.59-2.46L17.79,34H17l-.82-3.67H17l.5,2.6.61-2.6h.64Z"/><path class="cls-2" d="M22.51,34a.82.82,0,0,1-.08-.25.86.86,0,0,1-.69.3,1,1,0,0,1-.66-.23.8.8,0,0,1,.06-1.25,1.52,1.52,0,0,1,.93-.24h.33v-.15a.45.45,0,0,0-.1-.31.38.38,0,0,0-.3-.11.44.44,0,0,0-.29.09.3.3,0,0,0-.11.24h-.72a.7.7,0,0,1,.14-.44,1.07,1.07,0,0,1,.42-.32,1.57,1.57,0,0,1,.6-.11,1.2,1.2,0,0,1,.8.25.88.88,0,0,1,.29.71v1.19a1.38,1.38,0,0,0,.11.58V34Zm-.61-.51a.6.6,0,0,0,.3-.07.46.46,0,0,0,.2-.19v-.47h-.27c-.37,0-.56.12-.58.38v0a.3.3,0,0,0,.1.22A.36.36,0,0,0,21.9,33.45Z"/><path class="cls-2" d="M24.71,32.93l.51-1.7H26l-1.1,3.15-.06.14a.82.82,0,0,1-.8.54,1.26,1.26,0,0,1-.33-.05v-.55h.11a.6.6,0,0,0,.31-.06.39.39,0,0,0,.16-.21l.09-.22-1-2.74h.79Z"/><path class="cls-2" d="M27.77,33.2a.23.23,0,0,0-.13-.21,1.59,1.59,0,0,0-.43-.13c-.65-.14-1-.42-1-.83a.76.76,0,0,1,.3-.61,1.22,1.22,0,0,1,.79-.24,1.32,1.32,0,0,1,.83.24.78.78,0,0,1,.31.64h-.73a.34.34,0,0,0-.1-.26.41.41,0,0,0-.31-.1.48.48,0,0,0-.29.08.26.26,0,0,0-.1.21.24.24,0,0,0,.11.2,1.34,1.34,0,0,0,.39.13,2.18,2.18,0,0,1,.46.12.75.75,0,0,1,.58.73.74.74,0,0,1-.32.61,1.41,1.41,0,0,1-.83.23,1.48,1.48,0,0,1-.61-.12,1.11,1.11,0,0,1-.42-.34.77.77,0,0,1-.15-.46h.69a.4.4,0,0,0,.15.3.57.57,0,0,0,.36.1.52.52,0,0,0,.31-.08A.25.25,0,0,0,27.77,33.2Z"/><path class="cls-2" d="M30.12,32.57a1.66,1.66,0,0,1,.16-.72,1.15,1.15,0,0,1,.45-.5,1.37,1.37,0,0,1,.68-.17,1.25,1.25,0,0,1,.91.34,1.37,1.37,0,0,1,.39.91v.19a1.44,1.44,0,0,1-.35,1,1.35,1.35,0,0,1-1.88,0,1.44,1.44,0,0,1-.36-1Zm.73,0a1,1,0,0,0,.15.59.52.52,0,0,0,.83,0,1.13,1.13,0,0,0,.15-.65,1,1,0,0,0-.15-.59.49.49,0,0,0-.42-.21A.5.5,0,0,0,31,32,1.13,1.13,0,0,0,30.85,32.62Z"/><path class="cls-2" d="M33.36,34v-2.2H33v-.53h.41V31a.94.94,0,0,1,.26-.71,1,1,0,0,1,.74-.26,1.9,1.9,0,0,1,.37,0v.57a.75.75,0,0,0-.23,0c-.27,0-.41.13-.41.39v.22h.55v.53h-.55V34Z"/><path class="cls-2" d="M37.71,33.05l.83-2.76h.84L38.1,34h-.79L36,30.29h.84Z"/><path class="cls-2" d="M40.94,34a1.29,1.29,0,0,1-1.36-1.35v-.07a1.75,1.75,0,0,1,.16-.74,1.28,1.28,0,0,1,.45-.5,1.36,1.36,0,0,1,.67-.17,1.14,1.14,0,0,1,.88.35,1.42,1.42,0,0,1,.32,1v.3H40.32a.71.71,0,0,0,.22.43.64.64,0,0,0,.45.16.8.8,0,0,0,.66-.3l.36.4a1.16,1.16,0,0,1-.45.36A1.56,1.56,0,0,1,40.94,34Zm-.08-2.24a.49.49,0,0,0-.36.14.81.81,0,0,0-.17.42h1v0a.55.55,0,0,0-.14-.38A.45.45,0,0,0,40.86,31.77Z"/><path class="cls-2" d="M44,31.91l-.26,0a.53.53,0,0,0-.54.28V34h-.73V31.23h.69l0,.32a.67.67,0,0,1,.61-.37.78.78,0,0,1,.22,0Z"/><path class="cls-2" d="M45.05,31.23l0,.3a1,1,0,0,1,.79-.35.72.72,0,0,1,.72.42.94.94,0,0,1,.82-.42.78.78,0,0,1,.66.26,1.15,1.15,0,0,1,.22.78V34h-.73V32.22a.51.51,0,0,0-.09-.34.41.41,0,0,0-.32-.11.47.47,0,0,0-.46.31V34H46V32.22a.51.51,0,0,0-.09-.34.41.41,0,0,0-.32-.11.48.48,0,0,0-.45.26V34h-.73V31.23Z"/><path class="cls-2" d="M48.73,32.57a1.66,1.66,0,0,1,.15-.72,1.22,1.22,0,0,1,.45-.5,1.41,1.41,0,0,1,.69-.17,1.23,1.23,0,0,1,.9.34,1.37,1.37,0,0,1,.39.91v.19a1.4,1.4,0,0,1-.35,1A1.21,1.21,0,0,1,50,34a1.23,1.23,0,0,1-.94-.38,1.43,1.43,0,0,1-.35-1Zm.73,0a1,1,0,0,0,.14.59.49.49,0,0,0,.42.21.5.5,0,0,0,.42-.2,1.14,1.14,0,0,0,.14-.65,1,1,0,0,0-.14-.59.49.49,0,0,0-.42-.21.5.5,0,0,0-.42.2A1.14,1.14,0,0,0,49.46,32.62Z"/><path class="cls-2" d="M52.44,31.23l0,.31a1,1,0,0,1,.78-.36.8.8,0,0,1,.65.25,1.25,1.25,0,0,1,.22.76V34h-.73V32.21a.5.5,0,0,0-.1-.33.46.46,0,0,0-.34-.11.5.5,0,0,0-.46.26V34h-.73V31.23Z"/><path class="cls-2" d="M55.53,30.56v.67H56v.53h-.47v1.37a.29.29,0,0,0,.06.21.26.26,0,0,0,.22.07l.22,0v.55a1.35,1.35,0,0,1-.44.07.7.7,0,0,1-.79-.78V31.76h-.4v-.53h.4v-.67Z"/></g></g></svg>