<svg xmlns="http://www.w3.org/2000/svg" xmlns:xlink="http://www.w3.org/1999/xlink" viewBox="0 0 88.31 48.6"><defs><style>.cls-1{fill:none;}.cls-2{clip-path:url(#clip-path);}.cls-3{fill:#788ec7;}.cls-4{fill:#f04e31;}.cls-5{fill:#fcb23d;}.cls-6{fill:#0056a7;}.cls-7{fill:#fff;}</style><clipPath id="clip-path" transform="translate(0 0)"><rect class="cls-1" width="88.31" height="48.6"/></clipPath></defs><g id="Layer_2" data-name="Layer 2"><g id="Layer_1-2" data-name="Layer 1"><g class="cls-2"><path class="cls-3" d="M75.24,31.2a17.51,17.51,0,0,1-11.09,3.95H17.57a17.51,17.51,0,0,1-13-5.82h0l3,3.79A17.51,17.51,0,0,0,20.63,39H67.21A17.52,17.52,0,0,0,78.3,35.06Z" transform="translate(0 0)"/><path class="cls-4" d="M85.25,35.11h0a15,15,0,0,1-10-3.91l3.06,3.86A15.57,15.57,0,0,0,84,38.31a14.32,14.32,0,0,0,4.3.66Z" transform="translate(0 0)"/><path class="cls-5" d="M85.5,30.56a53.47,53.47,0,0,1-.72-9.13,17.46,17.46,0,0,0-3.31-10.24L77.87,6.6h0a17.51,17.51,0,0,1,3.85,11c0,12.84,3.53,17.54,3.53,17.54l3,3.86s-1.78-2.4-2.8-8.41" transform="translate(0 0)"/><path class="cls-6" d="M85.25,35.11s-3.53-4.7-3.53-17.54A17.57,17.57,0,0,0,64.15,0H17.57a17.58,17.58,0,0,0,0,35.15H64.15A17.51,17.51,0,0,0,75.24,31.2a15,15,0,0,0,10,3.91" transform="translate(0 0)"/><path class="cls-7" d="M31.33,26.56H18.92V23.88l5.72-6c1.41-1.6,2.11-2.87,2.11-3.82a2.65,2.65,0,0,0-.5-1.74,1.95,1.95,0,0,0-3,.2,3.28,3.28,0,0,0-.59,2H18.55a5.88,5.88,0,0,1,.82-3A5.78,5.78,0,0,1,21.64,9.3a6.79,6.79,0,0,1,3.25-.78,6.63,6.63,0,0,1,4.44,1.33,4.75,4.75,0,0,1,1.56,3.82,5.53,5.53,0,0,1-.39,2.05,9.08,9.08,0,0,1-1.22,2.09,31.46,31.46,0,0,1-2.65,2.93l-2.3,2.65h7Z" transform="translate(0 0)"/><polygon class="cls-7" points="45.73 26.56 41.6 26.56 41.6 13.42 37.55 14.6 37.55 11.47 45.35 8.78 45.73 8.78 45.73 26.56"/><polygon class="cls-7" points="62.33 26.56 58.2 26.56 58.2 13.42 54.14 14.6 54.14 11.47 61.95 8.78 62.33 8.78 62.33 26.56"/><path class="cls-7" d="M35.66,21.22h0a1.61,1.61,0,1,1,1.61-1.61,1.62,1.62,0,0,1-1.61,1.61" transform="translate(0 0)"/><path class="cls-7" d="M51.41,21.22h0A1.61,1.61,0,1,1,53,19.61a1.61,1.61,0,0,1-1.61,1.61" transform="translate(0 0)"/><path class="cls-6" d="M7.37,46.64a1.78,1.78,0,0,1-.75.49,3,3,0,0,1-1.07.18A2.12,2.12,0,0,1,4.46,47a1.84,1.84,0,0,1-.72-.79A2.8,2.8,0,0,1,3.48,45v-.32a2.87,2.87,0,0,1,.24-1.23,1.72,1.72,0,0,1,.7-.8,1.93,1.93,0,0,1,1.06-.28,2,2,0,0,1,1.32.4A1.75,1.75,0,0,1,7.37,44h-1a1,1,0,0,0-.29-.6.93.93,0,0,0-.61-.19.86.86,0,0,0-.76.38,1.91,1.91,0,0,0-.27,1.12V45a1.86,1.86,0,0,0,.29,1.13.94.94,0,0,0,.83.39,1.08,1.08,0,0,0,.79-.24v-.82h-.9v-.72H7.37Z" transform="translate(0 0)"/><path class="cls-6" d="M9.75,47.3a1.72,1.72,0,0,1-1.27-.47A1.7,1.7,0,0,1,8,45.55v-.09a2.24,2.24,0,0,1,.2-1,1.55,1.55,0,0,1,.59-.65,1.65,1.65,0,0,1,.86-.23,1.46,1.46,0,0,1,1.14.46,1.86,1.86,0,0,1,.42,1.3v.39H9a.88.88,0,0,0,.27.55.85.85,0,0,0,.59.21,1,1,0,0,0,.85-.39l.47.52a1.59,1.59,0,0,1-.58.47,1.91,1.91,0,0,1-.8.16m-.11-2.9a.59.59,0,0,0-.46.19.92.92,0,0,0-.22.54h1.31v-.07a.68.68,0,0,0-.17-.49.58.58,0,0,0-.46-.17" transform="translate(0 0)"/><path class="cls-6" d="M12.9,42.83v.87h.6v.69h-.6v1.77a.43.43,0,0,0,.07.28.37.37,0,0,0,.29.09,1.14,1.14,0,0,0,.28,0v.72a1.87,1.87,0,0,1-.57.08.9.9,0,0,1-1-1V44.39h-.51V43.7H12v-.87Z" transform="translate(0 0)"/><path class="cls-6" d="M19.5,45.65a1.68,1.68,0,0,1-.57,1.21,2,2,0,0,1-1.35.44,1.79,1.79,0,0,1-1.44-.61,2.54,2.54,0,0,1-.52-1.7V44.7a2.9,2.9,0,0,1,.24-1.21,1.81,1.81,0,0,1,.69-.8,1.92,1.92,0,0,1,1.05-.28,2,2,0,0,1,1.32.44,1.85,1.85,0,0,1,.59,1.24h-1a1,1,0,0,0-.25-.67.94.94,0,0,0-.67-.21.83.83,0,0,0-.74.36,1.92,1.92,0,0,0-.25,1.09V45a2.2,2.2,0,0,0,.23,1.13.85.85,0,0,0,.74.35,1,1,0,0,0,.68-.2,1,1,0,0,0,.26-.65Z" transform="translate(0 0)"/><path class="cls-6" d="M20,45.44a2.16,2.16,0,0,1,.2-.94,1.5,1.5,0,0,1,.58-.64,1.73,1.73,0,0,1,.89-.23,1.62,1.62,0,0,1,1.17.44,1.74,1.74,0,0,1,.5,1.19v.25a1.85,1.85,0,0,1-.45,1.3,1.58,1.58,0,0,1-1.22.49,1.6,1.6,0,0,1-1.23-.49A1.88,1.88,0,0,1,20,45.48Zm.94.06a1.4,1.4,0,0,0,.19.78.65.65,0,0,0,.55.26.63.63,0,0,0,.53-.26,1.46,1.46,0,0,0,.2-.85,1.27,1.27,0,0,0-.2-.76.67.67,0,0,0-1.08,0,1.52,1.52,0,0,0-.19.83" transform="translate(0 0)"/><path class="cls-6" d="M24.78,43.7l0,.41a1.23,1.23,0,0,1,1-.48,1,1,0,0,1,.83.33,1.5,1.5,0,0,1,.28,1v2.29H26V45a.64.64,0,0,0-.13-.44.59.59,0,0,0-.44-.14.68.68,0,0,0-.6.34v2.5h-.94V43.7Z" transform="translate(0 0)"/><path class="cls-6" d="M28.55,43.7l0,.41a1.23,1.23,0,0,1,1-.48,1,1,0,0,1,.84.33,1.62,1.62,0,0,1,.28,1v2.29h-.95V45a.59.59,0,0,0-.13-.44.58.58,0,0,0-.43-.14.66.66,0,0,0-.6.34v2.5h-.95V43.7Z" transform="translate(0 0)"/><path class="cls-6" d="M33,47.3a1.64,1.64,0,0,1-1.75-1.75v-.09a2.1,2.1,0,0,1,.2-1,1.49,1.49,0,0,1,.59-.65,1.65,1.65,0,0,1,.86-.23,1.49,1.49,0,0,1,1.14.46,1.86,1.86,0,0,1,.42,1.3v.39H32.24a.89.89,0,0,0,.28.55.83.83,0,0,0,.58.21,1,1,0,0,0,.86-.39l.46.52a1.47,1.47,0,0,1-.57.47,1.92,1.92,0,0,1-.81.16m-.11-2.9a.57.57,0,0,0-.45.19,1,1,0,0,0-.23.54h1.32v-.07a.72.72,0,0,0-.17-.49.59.59,0,0,0-.47-.17" transform="translate(0 0)"/><path class="cls-6" d="M36.54,46.54A.64.64,0,0,0,37,46.4a.49.49,0,0,0,.17-.38H38a1.19,1.19,0,0,1-.2.66,1.33,1.33,0,0,1-.53.46,1.64,1.64,0,0,1-.74.16,1.53,1.53,0,0,1-1.19-.48,1.86,1.86,0,0,1-.44-1.33v-.06a1.9,1.9,0,0,1,.43-1.31,1.54,1.54,0,0,1,1.2-.49,1.5,1.5,0,0,1,1.06.38A1.35,1.35,0,0,1,38,45h-.89a.61.61,0,0,0-.17-.45.54.54,0,0,0-.43-.17.57.57,0,0,0-.5.24,1.41,1.41,0,0,0-.17.78v.1a1.41,1.41,0,0,0,.17.78.58.58,0,0,0,.51.24" transform="translate(0 0)"/><path class="cls-6" d="M39.75,42.83v.87h.61v.69h-.61v1.77a.43.43,0,0,0,.08.28.35.35,0,0,0,.28.09,1.14,1.14,0,0,0,.28,0v.72a1.79,1.79,0,0,1-.57.08.9.9,0,0,1-1-1V44.39h-.52V43.7h.52v-.87Z" transform="translate(0 0)"/><path class="cls-6" d="M42.44,47.3a1.64,1.64,0,0,1-1.75-1.75v-.09a2.1,2.1,0,0,1,.2-1,1.49,1.49,0,0,1,.59-.65,1.62,1.62,0,0,1,.86-.23,1.49,1.49,0,0,1,1.14.46,1.86,1.86,0,0,1,.42,1.3v.39H41.64a.89.89,0,0,0,.28.55.83.83,0,0,0,.58.21,1,1,0,0,0,.86-.39l.46.52a1.47,1.47,0,0,1-.57.47,1.92,1.92,0,0,1-.81.16m-.11-2.9a.57.57,0,0,0-.45.19,1,1,0,0,0-.23.54H43v-.07a.72.72,0,0,0-.17-.49.59.59,0,0,0-.47-.17" transform="translate(0 0)"/><path class="cls-6" d="M44.32,45.44a2.13,2.13,0,0,1,.37-1.32,1.21,1.21,0,0,1,1-.49,1.09,1.09,0,0,1,.86.39V42.21h.95v5h-.86l0-.38a1.1,1.1,0,0,1-.91.44,1.21,1.21,0,0,1-1-.49,2.21,2.21,0,0,1-.37-1.37m.94.07a1.46,1.46,0,0,0,.17.77.59.59,0,0,0,.51.26.63.63,0,0,0,.62-.37v-1.4A.63.63,0,0,0,46,44.4q-.69,0-.69,1.11" transform="translate(0 0)"/><path class="cls-6" d="M48.26,46.77a.46.46,0,0,1,.15-.36.53.53,0,0,1,.38-.14.52.52,0,0,1,.39.14.46.46,0,0,1,.15.36.5.5,0,0,1-.15.37.56.56,0,0,1-.39.14.56.56,0,0,1-.38-.14.5.5,0,0,1-.15-.37" transform="translate(0 0)"/><path class="cls-6" d="M55.66,46.64a1.78,1.78,0,0,1-.75.49,3,3,0,0,1-1.07.18A2.12,2.12,0,0,1,52.75,47a1.84,1.84,0,0,1-.72-.79A2.8,2.8,0,0,1,51.77,45v-.32A2.87,2.87,0,0,1,52,43.49a1.72,1.72,0,0,1,.7-.8,1.93,1.93,0,0,1,1.06-.28,2,2,0,0,1,1.32.4A1.75,1.75,0,0,1,55.66,44h-1a1,1,0,0,0-.29-.6.93.93,0,0,0-.61-.19.86.86,0,0,0-.76.38,1.91,1.91,0,0,0-.27,1.12V45a1.86,1.86,0,0,0,.29,1.13.94.94,0,0,0,.83.39,1.08,1.08,0,0,0,.79-.24v-.82h-.9v-.72h1.88Z" transform="translate(0 0)"/><path class="cls-6" d="M58,47.3a1.65,1.65,0,0,1-1.75-1.75v-.09a2.24,2.24,0,0,1,.2-1,1.55,1.55,0,0,1,.59-.65,1.65,1.65,0,0,1,.86-.23,1.48,1.48,0,0,1,1.14.46,1.86,1.86,0,0,1,.42,1.3v.39H57.24a.88.88,0,0,0,.27.55.85.85,0,0,0,.59.21,1,1,0,0,0,.85-.39l.47.52a1.59,1.59,0,0,1-.58.47,1.92,1.92,0,0,1-.81.16m-.1-2.9a.59.59,0,0,0-.46.19.92.92,0,0,0-.22.54h1.31v-.07a.68.68,0,0,0-.17-.49.58.58,0,0,0-.46-.17" transform="translate(0 0)"/><path class="cls-6" d="M61.19,42.83v.87h.6v.69h-.6v1.77a.43.43,0,0,0,.07.28.37.37,0,0,0,.29.09,1.2,1.2,0,0,0,.28,0v.72a1.87,1.87,0,0,1-.57.08.9.9,0,0,1-1-1V44.39h-.52V43.7h.52v-.87Z" transform="translate(0 0)"/><polygon class="cls-6" points="67.93 47.24 66.94 47.24 66.94 45.2 65.03 45.2 65.03 47.24 64.05 47.24 64.05 42.48 65.03 42.48 65.03 44.41 66.94 44.41 66.94 42.48 67.93 42.48 67.93 47.24"/><path class="cls-6" d="M70.37,47.3a1.65,1.65,0,0,1-1.76-1.75v-.09a2.11,2.11,0,0,1,.21-1,1.53,1.53,0,0,1,.58-.65,1.65,1.65,0,0,1,.86-.23,1.5,1.5,0,0,1,1.15.46,1.86,1.86,0,0,1,.42,1.3v.39H69.57a.84.84,0,0,0,.28.55.83.83,0,0,0,.58.21,1,1,0,0,0,.86-.39l.46.52a1.44,1.44,0,0,1-.58.47,1.91,1.91,0,0,1-.8.16m-.11-2.9a.59.59,0,0,0-.46.19,1,1,0,0,0-.22.54H70.9v-.07a.78.78,0,0,0-.17-.49.61.61,0,0,0-.47-.17" transform="translate(0 0)"/><rect class="cls-6" x="72.43" y="42.21" width="0.95" height="5.03"/><path class="cls-6" d="M77.33,45.5A2.17,2.17,0,0,1,77,46.81a1.2,1.2,0,0,1-1,.49,1.08,1.08,0,0,1-.86-.37V48.6h-1V43.7H75l0,.35a1.11,1.11,0,0,1,.9-.42,1.2,1.2,0,0,1,1,.49,2.12,2.12,0,0,1,.37,1.33Zm-1-.07a1.45,1.45,0,0,0-.17-.76.58.58,0,0,0-.51-.27.62.62,0,0,0-.61.34v1.45a.61.61,0,0,0,.61.35c.46,0,.68-.37.68-1.11" transform="translate(0 0)"/><path class="cls-6" d="M77.84,46.77a.46.46,0,0,1,.15-.36.59.59,0,0,1,.76,0,.47.47,0,0,1,.16.36.51.51,0,0,1-.16.37.59.59,0,0,1-.76,0,.5.5,0,0,1-.15-.37" transform="translate(0 0)"/><path class="cls-6" d="M80.44,42.83H80v1.41h-.46V42.83h-.45v-.35h1.33Zm1.62.27-.37,1.15h-.23l-.37-1.16v1.16h-.42V42.48h.52l.38,1.2.42-1.2h.48v1.77h-.41Z" transform="translate(0 0)"/></g></g></g></svg>